<svg width="90" height="90" viewBox="0 0 90 90" fill="none" xmlns="http://www.w3.org/2000/svg">
<path fill-rule="evenodd" clip-rule="evenodd" d="M23.7923 79.4492H13.2417V89.9998H23.7923V79.4492Z" fill="#242629"/>
<path opacity="0.3" fill-rule="evenodd" clip-rule="evenodd" d="M52.9658 50.2762H63.5164V39.7256H52.9658V50.2762Z" fill="#242629"/>
<path opacity="0.6" fill-rule="evenodd" clip-rule="evenodd" d="M39.7256 50.2762H50.2762V39.7256H39.7256V50.2762Z" fill="#242629"/>
<path opacity="0.3" fill-rule="evenodd" clip-rule="evenodd" d="M63.5164 79.4492H52.9658V89.9998H63.5164V79.4492Z" fill="#242629"/>
<path opacity="0.6" fill-rule="evenodd" clip-rule="evenodd" d="M76.7581 79.4492H66.2075V89.9998H76.7581V79.4492Z" fill="#242629"/>
<path fill-rule="evenodd" clip-rule="evenodd" d="M26.4834 76.7581H37.0338V66.2075H26.4834V76.7581Z" fill="#242629"/>
<path opacity="0.6" fill-rule="evenodd" clip-rule="evenodd" d="M37.0338 79.4492H26.4834V89.9998H37.0338V79.4492Z" fill="#242629"/>
<path opacity="0.3" fill-rule="evenodd" clip-rule="evenodd" d="M23.7923 26.4834H13.2417V37.034H23.7923V26.4834Z" fill="#242629"/>
<path opacity="0.6" fill-rule="evenodd" clip-rule="evenodd" d="M23.7923 52.9673H13.2417V63.5177H23.7923V52.9673Z" fill="#242629"/>
<path opacity="0.6" fill-rule="evenodd" clip-rule="evenodd" d="M37.0338 52.9673H26.4834V63.5177H37.0338V52.9673Z" fill="#242629"/>
<path fill-rule="evenodd" clip-rule="evenodd" d="M76.7581 52.9673H66.2075V63.5177H76.7581V52.9673Z" fill="#242629"/>
<path fill-rule="evenodd" clip-rule="evenodd" d="M52.9658 23.7923H63.5164V13.2417H52.9658V23.7923Z" fill="#242629"/>
<path opacity="0.3" fill-rule="evenodd" clip-rule="evenodd" d="M13.2417 76.7581H23.7923V66.2075H13.2417V76.7581Z" fill="#242629"/>
<path opacity="0.6" fill-rule="evenodd" clip-rule="evenodd" d="M37.0338 26.4834H26.4834V37.034H37.0338V26.4834Z" fill="#242629"/>
<path fill-rule="evenodd" clip-rule="evenodd" d="M26.4834 23.7923H37.0338V13.2417H26.4834V23.7923Z" fill="#242629"/>
<path fill-rule="evenodd" clip-rule="evenodd" d="M26.4834 50.2762H37.0338V39.7256H26.4834V50.2762Z" fill="#242629"/>
<path opacity="0.6" fill-rule="evenodd" clip-rule="evenodd" d="M39.7256 23.7923H50.2762V13.2417H39.7256V23.7923Z" fill="#242629"/>
<path opacity="0.3" fill-rule="evenodd" clip-rule="evenodd" d="M66.2075 50.2762H76.7581V39.7256H66.2075V50.2762Z" fill="#242629"/>
<path opacity="0.3" fill-rule="evenodd" clip-rule="evenodd" d="M0 50.2762H10.5506V39.7256H0V50.2762Z" fill="#242629"/>
<path opacity="0.5" fill-rule="evenodd" clip-rule="evenodd" d="M66.2075 76.7581H76.7581V66.2075H66.2075V76.7581Z" fill="#242629"/>
<path fill-rule="evenodd" clip-rule="evenodd" d="M50.2762 79.4492H39.7256V89.9998H50.2762V79.4492Z" fill="#242629"/>
<path opacity="0.3" fill-rule="evenodd" clip-rule="evenodd" d="M13.2417 50.2762H23.7923V39.7256H13.2417V50.2762Z" fill="#242629"/>
<path fill-rule="evenodd" clip-rule="evenodd" d="M79.4492 50.2762H89.9998V39.7256H79.4492V50.2762Z" fill="#242629"/>
<path opacity="0.3" fill-rule="evenodd" clip-rule="evenodd" d="M63.5164 26.4834H52.9658V37.034H63.5164V26.4834Z" fill="#242629"/>
<path opacity="0.5" fill-rule="evenodd" clip-rule="evenodd" d="M50.2762 26.4834H39.7256V37.034H50.2762V26.4834Z" fill="#242629"/>
<path fill-rule="evenodd" clip-rule="evenodd" d="M50.2762 0H39.7256V10.5506H50.2762V0Z" fill="#242629"/>
<path opacity="0.5" fill-rule="evenodd" clip-rule="evenodd" d="M76.7581 26.4834H66.2075V37.034H76.7581V26.4834Z" fill="#242629"/>
</svg>
