<svg width="24" height="24" viewBox="0 0 24 24" fill="none" xmlns="http://www.w3.org/2000/svg">
<mask id="mask0_591_30011" style="mask-type:luminance" maskUnits="userSpaceOnUse" x="2" y="2" width="21" height="21">
<path d="M23 2H2V23H23V2Z" fill="white"/>
</mask>
<g mask="url(#mask0_591_30011)">
<path d="M19.9646 10.8124C19.9899 7.85166 17.4681 5.13746 14.3434 4.76213C14.2813 4.75474 14.2135 4.74354 14.1419 4.73165C13.9872 4.70602 13.8272 4.67969 13.6658 4.67969C13.0254 4.67969 12.8542 5.12954 12.8091 5.39787C12.7652 5.65873 12.8071 5.87779 12.9332 6.04927C13.1453 6.33766 13.5184 6.38884 13.8181 6.4299C13.906 6.44203 13.9889 6.45332 14.0583 6.46891C16.8658 7.09624 17.8111 8.08249 18.2731 10.8661C18.2844 10.9341 18.2895 11.0179 18.2949 11.1068C18.315 11.4396 18.357 12.1318 19.1013 12.1318C19.1632 12.1318 19.2299 12.1265 19.2992 12.1159C19.9923 12.0105 19.9705 11.3778 19.9601 11.0738C19.9571 10.9881 19.9544 10.9071 19.9617 10.8533C19.9635 10.8397 19.9645 10.8261 19.9646 10.8124Z" fill="#7F40BD"/>
<path d="M13.484 3.67532C13.5671 3.6813 13.6458 3.68704 13.7114 3.6971C18.3215 4.40609 20.4416 6.59033 21.0292 11.2365C21.0392 11.3155 21.0407 11.4119 21.0424 11.5138C21.0483 11.8768 21.0602 12.632 21.8713 12.6476L21.8965 12.6479C22.1508 12.6479 22.3531 12.5711 22.4979 12.4198C22.7503 12.1557 22.7327 11.7634 22.7185 11.4481C22.715 11.3707 22.7117 11.2979 22.7125 11.2341C22.7711 6.48229 18.6578 2.17333 13.9103 2.01312C13.8906 2.01247 13.8719 2.01354 13.8529 2.0162C13.8435 2.01755 13.8262 2.01928 13.7966 2.01928C13.7493 2.01928 13.691 2.01518 13.6293 2.01099C13.5546 2.00587 13.4699 2 13.3841 2C12.628 2 12.4843 2.53738 12.4659 2.85772C12.4236 3.59808 13.1397 3.65017 13.484 3.67532Z" fill="#7F40BD"/>
<path d="M20.806 17.2412C20.708 17.1664 20.6066 17.0889 20.5118 17.0125C20.0085 16.6074 19.473 16.234 18.955 15.8729C18.8476 15.7981 18.7401 15.7232 18.633 15.648C17.9696 15.182 17.3732 14.9555 16.8097 14.9555C16.0507 14.9555 15.3891 15.3749 14.843 16.2018C14.6011 16.5683 14.3075 16.7466 13.9458 16.7466C13.7318 16.7466 13.4888 16.6856 13.2234 16.5651C11.0821 15.5941 9.55306 14.1053 8.67874 12.1401C8.25608 11.1902 8.39311 10.5694 9.13696 10.0641C9.55938 9.77742 10.3456 9.24369 10.29 8.22162C10.2269 7.06096 7.66594 3.56862 6.58691 3.172C6.13008 3.004 5.65007 3.00244 5.15768 3.16811C3.91721 3.58511 3.02705 4.31744 2.58318 5.28577C2.15424 6.22146 2.1736 7.3201 2.63921 8.46296C3.98517 11.7672 5.8775 14.6482 8.26387 17.0255C10.5997 19.3527 13.4706 21.259 16.7968 22.6912C17.0966 22.8202 17.4111 22.8907 17.6407 22.9419C17.7189 22.9595 17.7865 22.9746 17.8357 22.988C17.8629 22.9954 17.8907 22.9994 17.9187 22.9997L17.945 22.9998C17.945 22.9998 17.9451 22.9998 17.945 22.9998C19.5095 22.9998 21.3881 21.5702 21.965 19.9404C22.4704 18.5134 21.5476 17.808 20.806 17.2412Z" fill="#7F40BD"/>
<path d="M14.1752 7.44979C13.9074 7.45656 13.3499 7.47038 13.1543 8.03812C13.0628 8.3034 13.0738 8.53375 13.187 8.72275C13.353 9.00005 13.6711 9.08504 13.9605 9.13167C15.01 9.30008 15.5489 9.88036 15.6567 10.9577C15.7067 11.4601 16.0451 11.811 16.4794 11.811C16.5115 11.811 16.5444 11.809 16.5771 11.8051C17.0995 11.7429 17.3527 11.3591 17.3299 10.6644C17.3382 9.93939 16.9588 9.11629 16.3134 8.46066C15.6658 7.80302 14.8852 7.43265 14.1752 7.44979Z" fill="#7F40BD"/>
</g>
</svg>
