<svg width="24" height="24" viewBox="0 0 24 24" fill="none" xmlns="http://www.w3.org/2000/svg">
<path fill-rule="evenodd" clip-rule="evenodd" d="M22.8064 4.3425C23.5259 5.1195 23.7599 6.88425 23.7599 6.88425C23.7599 6.88425 24 8.955 24 11.0265V12.9675C24 15.039 23.7599 17.1097 23.7599 17.1097C23.7599 17.1097 23.5251 18.8737 22.8064 19.6493C21.9832 20.5675 21.0711 20.6628 20.5559 20.7166C20.4996 20.7225 20.448 20.7278 20.4019 20.7337C17.0431 20.991 12 21 12 21C12 21 5.75955 20.9392 3.8397 20.7428C3.74883 20.7246 3.63875 20.7105 3.51412 20.6945C2.90613 20.6163 1.95196 20.4937 1.19362 19.6485C0.474148 18.873 0.240075 17.109 0.240075 17.109C0.240075 17.109 0 15.039 0 12.9667V11.0258C0 8.955 0.240075 6.88425 0.240075 6.88425C0.240075 6.88425 0.474898 5.1195 1.19362 4.3425C2.02037 3.42101 2.93555 3.32833 3.44966 3.27626C3.50378 3.27078 3.55346 3.26575 3.59812 3.26025C6.95617 3 11.994 3 11.994 3H12.0053C12.0053 3 17.0431 3 20.4019 3.26025C20.4466 3.26575 20.4963 3.27079 20.5504 3.27627C21.0647 3.32834 21.9803 3.42105 22.8064 4.3425ZM16.5052 12L9.00281 16.5V7.5L16.5052 12Z" fill="#E02F2F"/>
</svg>
