<svg width="65" height="48" viewBox="0 0 65 48" fill="none" xmlns="http://www.w3.org/2000/svg">
<path d="M40.5646 45.8805H61.3948V4.57935" stroke="#646B78" stroke-miterlimit="1.5" stroke-linecap="round" stroke-linejoin="round"/>
<path d="M58.2963 4.57935V42.5549H41.3282" stroke="#646B78" stroke-miterlimit="1.5" stroke-linecap="round" stroke-linejoin="round"/>
<path fill-rule="evenodd" clip-rule="evenodd" d="M7.51845 4.57886H0.617432V43.5486C0.617432 45.4549 2.16072 46.9999 4.06595 46.9999H4.06993C5.97516 46.9999 7.51845 45.4549 7.51845 43.5486C7.51845 33.4347 7.51845 4.57886 7.51845 4.57886Z" fill="white" stroke="white" stroke-miterlimit="1.5" stroke-linecap="round" stroke-linejoin="round"/>
<path fill-rule="evenodd" clip-rule="evenodd" d="M14.4232 4.57886H7.52222V43.5486C7.52222 45.4549 9.06551 46.9999 10.9707 46.9999H10.9747C12.8799 46.9999 14.4232 45.4549 14.4232 43.5486C14.4232 33.4347 14.4232 4.57886 14.4232 4.57886Z" stroke="white" stroke-miterlimit="1.5" stroke-linecap="round" stroke-linejoin="round"/>
<path fill-rule="evenodd" clip-rule="evenodd" d="M21.3277 4.57886H14.4266V43.5486C14.4266 45.4549 15.9699 46.9999 17.8752 46.9999H17.8791C19.7844 46.9999 21.3277 45.4549 21.3277 43.5486C21.3277 33.4347 21.3277 4.57886 21.3277 4.57886Z" stroke="white" stroke-miterlimit="1.5" stroke-linecap="round" stroke-linejoin="round"/>
<path fill-rule="evenodd" clip-rule="evenodd" d="M27.9015 4.57886H21.0005V43.5486C21.0005 45.4549 22.5438 46.9999 24.449 46.9999H24.453C26.3582 46.9999 27.9015 45.4549 27.9015 43.5486C27.9015 33.4347 27.9015 4.57886 27.9015 4.57886Z" fill="white" stroke="#646B78" stroke-miterlimit="1.5" stroke-linecap="round" stroke-linejoin="round"/>
<path fill-rule="evenodd" clip-rule="evenodd" d="M34.8063 4.57886H27.9053V43.5486C27.9053 45.4549 29.4486 46.9999 31.3538 46.9999H31.3578C33.263 46.9999 34.8063 45.4549 34.8063 43.5486C34.8063 33.4347 34.8063 4.57886 34.8063 4.57886Z" fill="white" stroke="#646B78" stroke-miterlimit="1.5" stroke-linecap="round" stroke-linejoin="round"/>
<path fill-rule="evenodd" clip-rule="evenodd" d="M41.7107 4.57886H34.8097V43.5486C34.8097 45.4549 36.353 46.9999 38.2582 46.9999H38.2622C40.1674 46.9999 41.7107 45.4549 41.7107 43.5486C41.7107 33.4347 41.7107 4.57886 41.7107 4.57886Z" fill="white" stroke="#646B78" stroke-miterlimit="1.5" stroke-linecap="round" stroke-linejoin="round"/>
<path fill-rule="evenodd" clip-rule="evenodd" d="M64.0161 2.93065C64.0161 2.41877 63.8132 1.92743 63.4512 1.56541C63.0893 1.20339 62.596 1 62.0869 1H19.9412C19.4281 1 18.935 1.20339 18.573 1.56541C18.211 1.92743 18.0082 2.41877 18.0082 2.93065V4.57911H64.0161V2.93065Z" stroke="#646B78" stroke-miterlimit="1.5" stroke-linecap="round" stroke-linejoin="round"/>
</svg>
