<svg width="48" height="48" viewBox="0 0 48 48" fill="none" xmlns="http://www.w3.org/2000/svg">
<g clip-path="url(#clip0_604_15505)">
<path d="M32.4722 26.6047C33.0224 25.8914 39.2141 20.3093 32.3395 13.1435C24.9284 5.41864 32.814 -0.10057 32.7305 0.208676" stroke="#646B78" stroke-miterlimit="1.5" stroke-linecap="round" stroke-linejoin="round"/>
<path d="M20.4829 26.6047C21.0332 25.8914 27.2248 20.3093 20.3503 13.1435C12.9391 5.41864 20.8248 -0.10057 20.7413 0.208676" stroke="#646B78" stroke-miterlimit="1.5" stroke-linecap="round" stroke-linejoin="round"/>
<path d="M7.60257 26.6047C8.15281 25.8914 14.3444 20.3093 7.46989 13.1435C0.0587482 5.41864 7.94442 -0.10057 7.8609 0.208676" stroke="#646B78" stroke-miterlimit="1.5" stroke-linecap="round" stroke-linejoin="round"/>
<path d="M47.5012 30.7734H3.35396C2.51649 30.7734 1.71298 31.109 1.12058 31.7063C0.528192 32.3035 0.195312 33.1136 0.195312 33.958V33.9595C0.195312 34.8039 0.528192 35.614 1.12058 36.2112C1.71298 36.8085 2.51649 37.1441 3.35396 37.1441C10.8455 37.1441 29.5538 37.1441 36.1583 37.1441C37.4582 37.1441 38.5123 38.2064 38.5123 39.5173V39.5177C38.5123 40.8287 37.4582 41.8909 36.1583 41.8909H3.11122C1.50107 41.8909 0.195312 43.2074 0.195312 44.8308V44.8315C0.195312 45.6113 0.502824 46.3593 1.04956 46.9105C1.59629 47.4617 2.33815 47.7713 3.11122 47.7713H47.5012" stroke="#646B78" stroke-miterlimit="1.5" stroke-linecap="round" stroke-linejoin="round"/>
</g>
<defs>
<clipPath id="clip0_604_15505">
<rect width="48" height="48" fill="white"/>
</clipPath>
</defs>
</svg>
